<?xml version="1.0" encoding="iso-8859-1"?>
<!-- Generator: Adobe Illustrator 16.0.0, SVG Export Plug-In . SVG Version: 6.00 Build 0)  -->
<!DOCTYPE svg PUBLIC "-//W3C//DTD SVG 1.1//EN" "http://www.w3.org/Graphics/SVG/1.1/DTD/svg11.dtd">
<svg version="1.1" id="Capa_1" xmlns="http://www.w3.org/2000/svg" xmlns:xlink="http://www.w3.org/1999/xlink" x="0px" y="0px"
	 width="766.438px" height="766.438px" viewBox="0 0 766.438 766.438" style="enable-background:new 0 0 766.438 766.438;"
	 xml:space="preserve">
<g>
	<path d="M4.338,3.988l-0.3,0.3c-3.8,3.8-5,9.6-3.1,14.6l262.2,682.1c2,5.2,7,8.7,12.601,8.8c5.6,0.101,10.699-3.3,12.8-8.399
		l83.3-200.2l259.4,259.4c7.8,7.8,20.5,7.8,28.3,0c27.8-27.801,73.2-73.2,101-101c7.8-7.801,7.8-20.5,0-28.301l-259.3-259.399
		l200.1-83.3c5.2-2.2,8.5-7.2,8.4-12.8l0,0c-0.101-5.6-3.601-10.6-8.801-12.6l-682-262.3C13.838-1.012,8.138,0.188,4.338,3.988z"/>
</g>
<g>
</g>
<g>
</g>
<g>
</g>
<g>
</g>
<g>
</g>
<g>
</g>
<g>
</g>
<g>
</g>
<g>
</g>
<g>
</g>
<g>
</g>
<g>
</g>
<g>
</g>
<g>
</g>
<g>
</g>
</svg>
