<?xml version="1.0" encoding="iso-8859-1"?>
<!-- Generator: Adobe Illustrator 16.0.0, SVG Export Plug-In . SVG Version: 6.00 Build 0)  -->
<!DOCTYPE svg PUBLIC "-//W3C//DTD SVG 1.1//EN" "http://www.w3.org/Graphics/SVG/1.1/DTD/svg11.dtd">
<svg version="1.1" id="Capa_1" xmlns="http://www.w3.org/2000/svg" xmlns:xlink="http://www.w3.org/1999/xlink" x="0px" y="0px"
	 width="917.6px" height="917.6px" viewBox="0 0 917.6 917.6" style="enable-background:new 0 0 917.6 917.6;" xml:space="preserve"
	>
<g>
	<g>
		<path d="M897.6,772.6h-50c-11,0-20,9-20,20v15c0,11-9,20-20,20h-15c-11,0-20,9-20,20v50c0,11,9,20,20,20l0,0c69,0,125-56,125-125
			C917.6,781.6,908.7,772.6,897.6,772.6z"/>
		<path d="M385.3,827.6H247c-24.9,0-45,20.101-45,45c0,24.9,20.1,45,45,45h138.2c24.899,0,45-20.1,45-45
			C430.3,847.8,410.1,827.6,385.3,827.6z"/>
		<path d="M670.6,827.6H532.3c-24.9,0-45,20.101-45,45c0,24.9,20.1,45,45,45h138.2c24.899,0,45-20.1,45-45
			C715.6,847.8,695.399,827.6,670.6,827.6z"/>
		<path d="M125,827.6h-15c-11,0-20-9-20-20v-15c0-11-9-20-20-20H20c-11,0-20,9-20,20c0,69,56,125,125,125l0,0c11,0,20-9,20-20v-50
			C145,836.6,136,827.6,125,827.6z"/>
		<path d="M0,670.6c0,24.9,20.1,45,45,45c24.9,0,45-20.1,45-45V532.3c0-24.9-20.1-45-45-45c-24.9,0-45,20.1-45,45V670.6z"/>
		<path d="M45,430.3c24.9,0,45-20.1,45-45V247c0-24.9-20.1-45-45-45c-24.9,0-45,20.1-45,45v138.2C0,410.1,20.1,430.3,45,430.3z"/>
		<path d="M125,0L125,0C56,0,0,56,0,125c0,11,9,20,20,20h50c11,0,20-9,20-20v-15c0-11,9-20,20-20h15c11,0,20-9,20-20V20
			C145,8.9,136,0,125,0z"/>
		<path d="M670.6,0H532.3c-24.9,0-45,20.1-45,45c0,24.9,20.1,45,45,45h138.2c24.899,0,45-20.1,45-45C715.6,20.1,695.399,0,670.6,0z"
			/>
		<path d="M202,45c0,24.9,20.1,45,45,45h138.2c24.899,0,45-20.1,45-45c0-24.9-20.101-45-45-45H247C222.2,0,202,20.1,202,45z"/>
		<path d="M792.6,0L792.6,0c-11,0-20,9-20,20v50c0,11,9,20,20,20h15c11,0,20,9,20,20v15c0,11,9,20,20,20h50c11,0,20-9,20-20
			C917.6,55.9,861.7,0,792.6,0z"/>
		<path d="M872.6,202c-24.899,0-45,20.1-45,45v138.2c0,24.899,20.101,45,45,45c24.9,0,45-20.101,45-45V247
			C917.6,222.2,897.5,202,872.6,202z"/>
		<path d="M872.6,487.3c-24.899,0-45,20.1-45,45v138.2c0,24.899,20.101,45,45,45c24.9,0,45-20.101,45-45V532.3
			C917.6,507.5,897.5,487.3,872.6,487.3z"/>
		<path d="M626.1,712.1c1.7,1.7,4,2.5,6.4,2.5c2.399,0,4.8-0.8,6.399-2.5c18.301-18.3,54.9-54.899,73.2-73.2c3.5-3.5,3.5-9.3,0-12.8
			C668.2,582.2,536.5,450.5,536.5,450.5s100-41.601,133.3-55.5c7.6-3.101,7.4-13.9-0.2-16.9c-113.6-43.7-340.8-131-454.5-174.7
			c-6.2-2.4-14.1,5.5-11.7,11.7c43.7,113.6,131,340.8,174.7,454.4c2.8,7.399,13.8,7.5,16.9,0.2
			c13.899-33.301,55.5-133.301,55.5-133.301S582.2,668.2,626.1,712.1z"/>
	</g>
</g>
<g>
</g>
<g>
</g>
<g>
</g>
<g>
</g>
<g>
</g>
<g>
</g>
<g>
</g>
<g>
</g>
<g>
</g>
<g>
</g>
<g>
</g>
<g>
</g>
<g>
</g>
<g>
</g>
<g>
</g>
</svg>
