<?xml version="1.0" encoding="iso-8859-1"?>
<!-- Generator: Adobe Illustrator 16.0.0, SVG Export Plug-In . SVG Version: 6.00 Build 0)  -->
<!DOCTYPE svg PUBLIC "-//W3C//DTD SVG 1.1//EN" "http://www.w3.org/Graphics/SVG/1.1/DTD/svg11.dtd">
<svg version="1.1" id="Capa_1" xmlns="http://www.w3.org/2000/svg" xmlns:xlink="http://www.w3.org/1999/xlink" x="0px" y="0px"
	 width="911.988px" height="911.989px" viewBox="0 0 911.988 911.989" style="enable-background:new 0 0 911.988 911.989;"
	 xml:space="preserve">
<g>
	<g>
		<path d="M906.289,511.789l-191.801-91.1c-6.6-3.2-14.3,1.699-14.3,9v46.199h-85.1v90.601c45.6,0,85.1,0,85.1,0v45.399
			c0,7.301,7.7,12.2,14.3,9l191.801-91.1C913.889,526.189,913.889,515.388,906.289,511.789z"/>
		<path d="M444.588,566.489v-90.601h-85.8v-46.199c0-7.301-7.7-12.2-14.301-9l-191.8,91.1c-7.6,3.6-7.6,14.5,0,18.1l191.8,91.101
			c6.601,3.2,14.301-1.7,14.301-9v-45.4C358.688,566.489,398.588,566.489,444.588,566.489z"/>
		<path d="M620.488,691.489L620.488,691.489h-45.399v-341.4h45.399l0,0c7.301,0,12.2-7.7,9-14.3l-91.1-191.8c-1.8-3.8-5.4-5.7-9-5.7
			s-7.2,1.9-9,5.7l-91,191.8c-3.1,6.6,1.7,14.3,9,14.3l0,0h46.201v341.5h-46.201l0,0c-7.3,0-12.2,7.7-9,14.3l91.1,191.801
			c1.801,3.8,5.4,5.699,9,5.699c3.601,0,7.2-1.899,9-5.699l91.101-191.9C632.688,699.189,627.889,691.489,620.488,691.489z"/>
		<path d="M166.388,392.289l60.7-145.8c2-4.9,5.9-8.8,10.8-10.8l145.8-60.7c5.2-2.2,8.5-7.2,8.4-12.8
			c-0.101-5.6-3.601-10.6-8.8-12.6l-364.4-140.1c-5.1-1.9-10.8-0.7-14.6,3.1l-0.3,0.3c-3.8,3.8-5,9.6-3.1,14.6l140.1,364.399
			c2,5.2,7,8.7,12.6,8.801C159.188,400.789,164.288,397.489,166.388,392.289z"/>
	</g>
</g>
<g>
</g>
<g>
</g>
<g>
</g>
<g>
</g>
<g>
</g>
<g>
</g>
<g>
</g>
<g>
</g>
<g>
</g>
<g>
</g>
<g>
</g>
<g>
</g>
<g>
</g>
<g>
</g>
<g>
</g>
</svg>
