<?xml version="1.0" encoding="iso-8859-1"?>
<!-- Generator: Adobe Illustrator 16.0.0, SVG Export Plug-In . SVG Version: 6.00 Build 0)  -->
<!DOCTYPE svg PUBLIC "-//W3C//DTD SVG 1.1//EN" "http://www.w3.org/Graphics/SVG/1.1/DTD/svg11.dtd">
<svg version="1.1" id="Capa_1" xmlns="http://www.w3.org/2000/svg" xmlns:xlink="http://www.w3.org/1999/xlink" x="0px" y="0px"
	 width="929.966px" height="929.965px" viewBox="0 0 929.966 929.965" style="enable-background:new 0 0 929.966 929.965;"
	 xml:space="preserve">
<g>
	<path d="M918.364,344.724l-893.5-343.5c-6.6-2.5-14.1-1-19.2,4.1l-0.4,0.4c-5,5-6.6,12.5-4.1,19.2l343.5,893.501
		c2.6,6.899,9.2,11.399,16.5,11.5c7.3,0.1,14-4.301,16.8-11.101l109.1-262.2l158.7,158.7c10.2,10.2,26.8,10.2,37,0
		c36.5-36.5,95.9-95.899,132.4-132.399c10.2-10.2,10.2-26.801,0-37l-158.5-158.7l262.2-109.101c6.8-2.8,11.199-9.5,11.1-16.8l0,0
		C929.764,353.923,925.164,347.323,918.364,344.724z"/>
</g>
<g>
</g>
<g>
</g>
<g>
</g>
<g>
</g>
<g>
</g>
<g>
</g>
<g>
</g>
<g>
</g>
<g>
</g>
<g>
</g>
<g>
</g>
<g>
</g>
<g>
</g>
<g>
</g>
<g>
</g>
</svg>
