<?xml version="1.0" encoding="iso-8859-1"?>
<!-- Generator: Adobe Illustrator 16.0.0, SVG Export Plug-In . SVG Version: 6.00 Build 0)  -->
<!DOCTYPE svg PUBLIC "-//W3C//DTD SVG 1.1//EN" "http://www.w3.org/Graphics/SVG/1.1/DTD/svg11.dtd">
<svg version="1.1" id="Capa_1" xmlns="http://www.w3.org/2000/svg" xmlns:xlink="http://www.w3.org/1999/xlink" x="0px" y="0px"
	 width="863.6px" height="863.6px" viewBox="0 0 863.6 863.6" style="enable-background:new 0 0 863.6 863.6;" xml:space="preserve"
	>
<g>
	<g>
		<path d="M369.3,189.149c-11,0-20,9-20,20v23.4h165v-23.4c0-11-9-20-20-20H369.3z"/>
		<path d="M376.3,457.55c15.3,8.299,34.3,13.199,54.9,13.199c21.399,0,41.1-5.299,56.6-14.1c2.7-11.801,6.5-23.4,11.2-34.7
			c4.1-9.7,8.9-19,14.4-28c-11.601-7-25.101-11.601-36.4-14.5c-23.5-6-44.1-6.4-45.9-6.4c-1.8,0-22.399,0.4-45.899,6.4
			c-10.9,2.8-23.7,7.1-35,13.6c5.399,8.8,10.2,18.101,14.2,27.7C369.6,432.749,373.5,445.05,376.3,457.55z"/>
		<path d="M319.5,353.95c2.3,2.3,4.6,4.7,6.8,7.1c44.3-27.9,105-28,105-28s62,0,106.4,28.8c2.1-2.3,4.3-4.6,6.6-6.899
			c19.3-19.3,41.8-34.5,66.9-45.1c13.7-5.8,27.8-10,42.2-12.8l-11.4-5.6c-25.6-12.5-53.7-19-82.2-19H299.3
			c-28.3,0-56.2,6.4-81.7,18.8l-9,4.4c15.1,2.7,29.8,7.1,44,13.1C277.6,319.45,300.2,334.649,319.5,353.95z"/>
		<path d="M170.6,673.349c94.2,0,170.5-76.398,170.5-170.5c0-28.6-7.1-55.6-19.6-79.299c-6.5-12.3-15.1-24.7-24.7-35.3
			c-25.5-28.1-60.3-47.7-99.5-53.8c-23.9-3.8-49.6-2.3-72.8,4.2C52.7,358.75,0,424.65,0,502.849
			C0.1,597.05,76.4,673.349,170.6,673.349z"/>
		<path d="M734,338.35c-24.5-6-51.6-6.5-76.2-1.3c-35.899,7.6-67.6,26.4-91.3,52.601c-9.6,10.6-18,22.699-24.6,35.399
			C529.6,448.649,522.6,475.45,522.6,503.95c0,94.199,76.4,170.5,170.5,170.5c94.101,0,170.5-76.4,170.5-170.5
			C863.6,423.849,808.4,356.65,734,338.35z"/>
	</g>
</g>
<g>
</g>
<g>
</g>
<g>
</g>
<g>
</g>
<g>
</g>
<g>
</g>
<g>
</g>
<g>
</g>
<g>
</g>
<g>
</g>
<g>
</g>
<g>
</g>
<g>
</g>
<g>
</g>
<g>
</g>
</svg>
