<?xml version="1.0" encoding="iso-8859-1"?>
<!-- Generator: Adobe Illustrator 16.0.0, SVG Export Plug-In . SVG Version: 6.00 Build 0)  -->
<!DOCTYPE svg PUBLIC "-//W3C//DTD SVG 1.1//EN" "http://www.w3.org/Graphics/SVG/1.1/DTD/svg11.dtd">
<svg version="1.1" id="Capa_1" xmlns="http://www.w3.org/2000/svg" xmlns:xlink="http://www.w3.org/1999/xlink" x="0px" y="0px"
	 width="890.1px" height="890.1px" viewBox="0 0 890.1 890.1" style="enable-background:new 0 0 890.1 890.1;" xml:space="preserve"
	>
<g>
	<g>
		<g>
			<path d="M443.6,131.35c-16.5,0-30,13.5-30,30v111.9c0,16.5,13.5,30,30,30s30-13.5,30-30v-111.9
				C473.6,144.85,460.2,131.35,443.6,131.35z"/>
			<path d="M287.3,199.75c-5.7-5.7-13.2-8.8-21.2-8.8s-15.5,3.1-21.2,8.8c-11.7,11.7-11.7,30.7,0,42.4l79.1,79.1
				c5.7,5.7,13.2,8.8,21.2,8.8s15.5-3.1,21.199-8.8c11.7-11.7,11.7-30.7,0-42.4L287.3,199.75z"/>
			<path d="M566.1,321.25l79.101-79.1c11.699-11.7,11.699-30.7,0-42.4c-5.7-5.7-13.2-8.8-21.2-8.8s-15.5,3.1-21.2,8.8l-79.1,79.1
				c-11.7,11.7-11.7,30.7,0,42.4c5.699,5.7,13.199,8.8,21.199,8.8S560.399,326.95,566.1,321.25z"/>
		</g>
		<g>
			<path d="M834.899,434.349c-35.6-35.6-82.899-55.2-133.199-55.2H546c-11,0-20,9-20,20v87.601c0,11,9,20,20,20h48.1
				c11,0,20-9,20-20v-19.5H701.7c55.399,0,100.199,44.9,100.199,100.199v1.4l0,0v1.4c0,55.4-44.899,100.199-100.199,100.199H614.1
				v-19.5c0-11-9-20-20-20H546c-11,0-20,9-20,20v87.801c0,11,9,20,20,20h155.7c50.3,0,97.6-19.6,133.199-55.201
				c35.601-35.6,55.2-82.898,55.2-133.199v-1.4l0,0v-1.4C890,517.25,870.5,469.949,834.899,434.349z"/>
			<path d="M55.2,434.349c35.6-35.6,82.9-55.2,133.2-55.2h155.7c11,0,20,9,20,20v87.601c0,11-9,20-20,20H296c-11,0-20-9-20-20v-19.5
				h-87.7c-55.4,0-100.2,44.9-100.2,100.199v1.4l0,0v1.4c0,55.4,44.9,100.199,100.2,100.199h87.6v-19.5c0-11,9-20,20-20H344
				c11,0,20,9,20,20v87.801c0,11-9,20-20,20H188.3c-50.3,0-97.6-19.6-133.2-55.201C19.6,668.049,0,620.75,0,570.449v-1.4l0,0v-1.398
				C0,517.25,19.6,469.949,55.2,434.349z"/>
		</g>
	</g>
</g>
<g>
</g>
<g>
</g>
<g>
</g>
<g>
</g>
<g>
</g>
<g>
</g>
<g>
</g>
<g>
</g>
<g>
</g>
<g>
</g>
<g>
</g>
<g>
</g>
<g>
</g>
<g>
</g>
<g>
</g>
</svg>
