<?xml version="1.0" encoding="iso-8859-1"?>
<!-- Generator: Adobe Illustrator 16.0.0, SVG Export Plug-In . SVG Version: 6.00 Build 0)  -->
<!DOCTYPE svg PUBLIC "-//W3C//DTD SVG 1.1//EN" "http://www.w3.org/Graphics/SVG/1.1/DTD/svg11.dtd">
<svg version="1.1" id="Capa_1" xmlns="http://www.w3.org/2000/svg" xmlns:xlink="http://www.w3.org/1999/xlink" x="0px" y="0px"
	 width="619.588px" height="619.588px" viewBox="0 0 619.588 619.588" style="enable-background:new 0 0 619.588 619.588;"
	 xml:space="preserve">
<g>
	<path d="M609.722,334.588c0,0,0-194.301,0-215c0-21.7-13.9-40.9-34.5-47.7c-57.601-18.9-172.101-56-224.8-69
		c-14.101-3.5-28.801-3.8-43.1-1l-125.899,24.5c-23.601,4.6-40.601,25.2-40.601,49.2c-0.1,37.1-0.4,104.1-0.6,145.9
		c-0.1,10.7-16,11-16.5,0.4c-0.7-14.4-0.3-31.7-1.7-49.101c-5.2-65-100.4-60.7-105.9,2.5c-7.3,83.9-19.1,203.601,37.8,261l56.6,62.4
		h431.799C542.321,498.688,609.722,364.987,609.722,334.588z"/>
	<path d="M131.722,619.588h390c11,0,20-9,20-20v-64.301h-430v64.301C111.722,610.688,120.722,619.588,131.722,619.588z"/>
</g>
<g>
</g>
<g>
</g>
<g>
</g>
<g>
</g>
<g>
</g>
<g>
</g>
<g>
</g>
<g>
</g>
<g>
</g>
<g>
</g>
<g>
</g>
<g>
</g>
<g>
</g>
<g>
</g>
<g>
</g>
</svg>
