<?xml version="1.0" encoding="iso-8859-1"?>
<!-- Generator: Adobe Illustrator 16.0.0, SVG Export Plug-In . SVG Version: 6.00 Build 0)  -->
<!DOCTYPE svg PUBLIC "-//W3C//DTD SVG 1.1//EN" "http://www.w3.org/Graphics/SVG/1.1/DTD/svg11.dtd">
<svg version="1.1" id="Capa_1" xmlns="http://www.w3.org/2000/svg" xmlns:xlink="http://www.w3.org/1999/xlink" x="0px" y="0px"
	 width="834.1px" height="834.1px" viewBox="0 0 834.1 834.1" style="enable-background:new 0 0 834.1 834.1;" xml:space="preserve"
	>
<g>
	<path d="M0,281.35v271.4c0,11,9,20,20,20h794.1c11,0,20-9,20-20v-271.4c0-11-9-20-20-20H20C9,261.35,0,270.35,0,281.35z
		 M68.1,337.25c0-11,9-20,20-20h32c11,0,20,9,20,20v159.7c0,11-9,20-20,20h-32c-11,0-20-9-20-20V337.25z"/>
</g>
<g>
</g>
<g>
</g>
<g>
</g>
<g>
</g>
<g>
</g>
<g>
</g>
<g>
</g>
<g>
</g>
<g>
</g>
<g>
</g>
<g>
</g>
<g>
</g>
<g>
</g>
<g>
</g>
<g>
</g>
</svg>
