<?xml version="1.0" encoding="iso-8859-1"?>
<!-- Generator: Adobe Illustrator 16.0.0, SVG Export Plug-In . SVG Version: 6.00 Build 0)  -->
<!DOCTYPE svg PUBLIC "-//W3C//DTD SVG 1.1//EN" "http://www.w3.org/Graphics/SVG/1.1/DTD/svg11.dtd">
<svg version="1.1" id="Capa_1" xmlns="http://www.w3.org/2000/svg" xmlns:xlink="http://www.w3.org/1999/xlink" x="0px" y="0px"
	 width="867.2px" height="867.2px" viewBox="0 0 867.2 867.2" style="enable-background:new 0 0 867.2 867.2;" xml:space="preserve"
	>
<g>
	<path d="M127,740.2c39.8,39.801,86.2,71.102,137.8,92.9c53.5,22.6,110.301,34.1,168.801,34.1s115.3-11.5,168.8-34.1
		c51.6-21.799,98-53.1,137.8-92.9c39.8-39.799,71.1-86.199,92.9-137.799c22.6-53.5,34.1-110.301,34.1-168.801
		c0-58.5-11.4-115.299-34-168.799c-21.8-51.6-53.1-98-92.9-137.8c-39.8-39.8-86.199-71.1-137.8-92.9C549,11.4,492.2,0,433.7,0
		s-115.3,11.5-168.8,34.1c-51.6,21.8-98,53.1-137.8,92.9c-39.8,39.8-71.1,86.2-92.9,137.8C11.5,318.301,0,375.101,0,433.6
		c0,58.5,11.5,115.301,34.1,168.801C56,654.1,87.2,700.401,127,740.2z M433.7,767.2c-72.2,0-140.9-22.799-197.9-65l197.9-197.898
		l197.9,197.898C574.601,744.401,505.9,767.2,433.7,767.2z M767.3,433.6c0,72.201-22.8,140.9-65,197.9L504.4,433.6L702.3,235.701
		C744.5,292.701,767.3,361.4,767.3,433.6z M433.7,100c72.2,0,140.9,22.8,197.9,65L433.7,362.9l-198-198
		C292.7,122.801,361.4,100,433.7,100z M165,235.701L362.9,433.6L165,631.5c-42.2-57-65-125.699-65-197.9
		C100,361.4,122.8,292.701,165,235.701z"/>
</g>
<g>
</g>
<g>
</g>
<g>
</g>
<g>
</g>
<g>
</g>
<g>
</g>
<g>
</g>
<g>
</g>
<g>
</g>
<g>
</g>
<g>
</g>
<g>
</g>
<g>
</g>
<g>
</g>
<g>
</g>
</svg>
