<?xml version="1.0" encoding="iso-8859-1"?>
<!-- Generator: Adobe Illustrator 16.0.0, SVG Export Plug-In . SVG Version: 6.00 Build 0)  -->
<!DOCTYPE svg PUBLIC "-//W3C//DTD SVG 1.1//EN" "http://www.w3.org/Graphics/SVG/1.1/DTD/svg11.dtd">
<svg version="1.1" id="Capa_1" xmlns="http://www.w3.org/2000/svg" xmlns:xlink="http://www.w3.org/1999/xlink" x="0px" y="0px"
	 width="850.72px" height="850.72px" viewBox="0 0 850.72 850.72" style="enable-background:new 0 0 850.72 850.72;"
	 xml:space="preserve">
<g>
	<path d="M132.573,844.987l68,5.7c6.3,0.5,11.6-4.9,10.8-11.2l-6-47.7c-1.6-12.6,8.8-23.5,21.5-22.4l50.7,4.301
		c6.3,0.5,11.601-4.9,10.8-11.2l-9.1-72.101l162.599-162.6c104.4,52.3,234.801,35,321.801-52.1c108.8-108.8,108.8-285.2,0-394
		c-108.601-108.9-285-108.9-393.8-0.1c-87.1,87.1-104.399,217.5-52.1,321.8l-309.4,309.4c-3.9,3.9-3.9,10.2,0,14.1l111.8,112.2
		C123.473,842.487,127.873,844.587,132.573,844.987z M553.072,168.087c34.3-34.3,89.9-34.3,124.2,0c34.3,34.3,34.3,89.9,0,124.2
		s-89.9,34.3-124.2,0C518.772,258.087,518.772,202.388,553.072,168.087z"/>
</g>
<g>
</g>
<g>
</g>
<g>
</g>
<g>
</g>
<g>
</g>
<g>
</g>
<g>
</g>
<g>
</g>
<g>
</g>
<g>
</g>
<g>
</g>
<g>
</g>
<g>
</g>
<g>
</g>
<g>
</g>
</svg>
