<?xml version="1.0" encoding="iso-8859-1"?>
<!-- Generator: Adobe Illustrator 16.0.0, SVG Export Plug-In . SVG Version: 6.00 Build 0)  -->
<!DOCTYPE svg PUBLIC "-//W3C//DTD SVG 1.1//EN" "http://www.w3.org/Graphics/SVG/1.1/DTD/svg11.dtd">
<svg version="1.1" id="Capa_1" xmlns="http://www.w3.org/2000/svg" xmlns:xlink="http://www.w3.org/1999/xlink" x="0px" y="0px"
	 width="950px" height="950px" viewBox="0 0 950 950" style="enable-background:new 0 0 950 950;" xml:space="preserve">
<g>
	<path d="M927.2,502.32H769.8c-5.3,0-10.399,2.1-14.1,5.8c-55.2,55-157.5,156.899-167.5,166.8c-13.8,13.7-28.2,30.2-49.2,30.2
		c-0.1,0-0.2,0-0.2,0s-139.7-0.8-139.8-0.8c-33.9-0.2-64.3-30.301-64.3-64.301l0.3-117.6c0-11.1-8.9-20.1-20-20.1H22.8
		c-12.6,0-22.8,10.199-22.8,22.8v309.1c0,12.601,10.2,22.8,22.8,22.8h904.4c12.6,0,22.8-10.199,22.8-22.8v-309.1
		C950,512.52,939.8,502.32,927.2,502.32z"/>
	<path d="M840.4,359.719l-0.101-0.1l-161-161c0,0-261.3,262.7-261.2,262.7c0,0,160.101,160.1,160.301,160.3L840.4,359.719z"/>
	<path d="M879.1,321.02l60.9-60.9c8-8,7.1-23.2-0.7-31c0,0-130.5-130.5-130.6-130.6c-7.3-7.3-19.5-7.4-26.9-0.2l-63.8,61.6
		L879.1,321.02L879.1,321.02z"/>
	<path d="M399.2,658.82l139.8,0.8L379.4,500.02c0,0,0.8,139.601,0.8,139.801C380.2,649.22,389.7,658.82,399.2,658.82z"/>
</g>
<g>
</g>
<g>
</g>
<g>
</g>
<g>
</g>
<g>
</g>
<g>
</g>
<g>
</g>
<g>
</g>
<g>
</g>
<g>
</g>
<g>
</g>
<g>
</g>
<g>
</g>
<g>
</g>
<g>
</g>
</svg>
