<?xml version="1.0" encoding="iso-8859-1"?>
<!-- Generator: Adobe Illustrator 16.0.0, SVG Export Plug-In . SVG Version: 6.00 Build 0)  -->
<!DOCTYPE svg PUBLIC "-//W3C//DTD SVG 1.1//EN" "http://www.w3.org/Graphics/SVG/1.1/DTD/svg11.dtd">
<svg version="1.1" id="Capa_1" xmlns="http://www.w3.org/2000/svg" xmlns:xlink="http://www.w3.org/1999/xlink" x="0px" y="0px"
	 width="867.199px" height="867.199px" viewBox="0 0 867.199 867.199" style="enable-background:new 0 0 867.199 867.199;"
	 xml:space="preserve">
<g>
	<path d="M127,740.199c39.8,39.801,86.2,71.102,137.8,92.9c53.5,22.6,110.3,34.1,168.8,34.1c58.5,0,115.3-11.5,168.8-34.1
		c51.6-21.799,98-53.1,137.799-92.9C780,700.4,811.301,654,833.1,602.4c22.6-53.5,34.1-110.301,34.1-168.801
		c0-58.5-11.5-115.299-34.1-168.799c-21.799-51.6-53.1-98-92.9-137.8C700.4,87.2,654,55.9,602.4,34.1C548.9,11.4,492.1,0,433.6,0
		c-58.5,0-115.3,11.5-168.8,34.1c-51.6,21.8-98,53.1-137.8,92.9c-39.8,39.8-71.1,86.2-92.9,137.8C11.4,318.3,0,375.1,0,433.6
		C0,492.1,11.5,548.9,34.1,602.4C55.9,654.1,87.2,700.4,127,740.199z M767.199,433.6c0,89.1-34.699,172.9-97.699,235.9
		s-146.801,97.699-235.9,97.699c-72.2,0-140.9-22.799-197.9-65L702.301,235.6C744.4,292.7,767.199,361.4,767.199,433.6z
		 M197.7,197.7c63-63,146.8-97.7,235.9-97.7c72.201,0,140.9,22.8,197.9,65L164.9,631.5c-42.2-57-65-125.699-65-197.9
		C100,344.5,134.7,260.7,197.7,197.7z"/>
</g>
<g>
</g>
<g>
</g>
<g>
</g>
<g>
</g>
<g>
</g>
<g>
</g>
<g>
</g>
<g>
</g>
<g>
</g>
<g>
</g>
<g>
</g>
<g>
</g>
<g>
</g>
<g>
</g>
<g>
</g>
</svg>
