<?xml version="1.0" encoding="iso-8859-1"?>
<!-- Generator: Adobe Illustrator 16.0.0, SVG Export Plug-In . SVG Version: 6.00 Build 0)  -->
<!DOCTYPE svg PUBLIC "-//W3C//DTD SVG 1.1//EN" "http://www.w3.org/Graphics/SVG/1.1/DTD/svg11.dtd">
<svg version="1.1" id="Capa_1" xmlns="http://www.w3.org/2000/svg" xmlns:xlink="http://www.w3.org/1999/xlink" x="0px" y="0px"
	 width="801.8px" height="801.8px" viewBox="0 0 801.8 801.8" style="enable-background:new 0 0 801.8 801.8;" xml:space="preserve"
	>
<g>
	<path d="M180.05,610.3L180.05,610.3c0,0,85.8,72.2,95.3,173.4c1,10.3,9.6,18.1,19.9,18.1h12c11,0,20-9,20-20v-66.2
		c0-8.6,5.399-16.399,13.6-19c13.7-4.199,26.4,5.9,26.4,19v66.2c0,11,9,20,20,20h27.3c11,0,20-9,20-20v-66.2
		c0-8.6,5.398-16.399,13.6-19c13.699-4.199,26.4,5.9,26.4,19v66.2c0,11,9,20,20,20h12c10.299,0,18.898-7.8,19.898-18.1
		c9.5-101.2,95.301-173.4,95.301-173.4l0,0C697.65,547,746.05,451.7,746.05,345.1C745.949,154.5,591.449,0,400.85,0
		c-190.6,0-345.1,154.5-345.1,345.1C55.75,451.7,104.05,547,180.05,610.3z M557.349,343.6c52.1,0,94.301,42.2,94.301,94.301
		c0,52.1-42.201,94.3-94.301,94.3S463.05,490,463.05,437.9C463.05,385.8,505.25,343.6,557.349,343.6z M367.35,572.3l24.7-45.399
		c3.8-7,13.799-7,17.6,0l24.699,45.399c3.6,6.7-1.199,14.8-8.799,14.8h-49.401C368.55,587.1,363.75,579,367.35,572.3z M244.35,343.6
		c52.1,0,94.3,42.2,94.3,94.301c0,52.1-42.2,94.3-94.3,94.3c-52.1,0-94.3-42.2-94.3-94.3C150.05,385.8,192.25,343.6,244.35,343.6z"
		/>
</g>
<g>
</g>
<g>
</g>
<g>
</g>
<g>
</g>
<g>
</g>
<g>
</g>
<g>
</g>
<g>
</g>
<g>
</g>
<g>
</g>
<g>
</g>
<g>
</g>
<g>
</g>
<g>
</g>
<g>
</g>
</svg>
