<?xml version="1.0" encoding="iso-8859-1"?>
<!-- Generator: Adobe Illustrator 16.0.0, SVG Export Plug-In . SVG Version: 6.00 Build 0)  -->
<!DOCTYPE svg PUBLIC "-//W3C//DTD SVG 1.1//EN" "http://www.w3.org/Graphics/SVG/1.1/DTD/svg11.dtd">
<svg version="1.1" id="Capa_1" xmlns="http://www.w3.org/2000/svg" xmlns:xlink="http://www.w3.org/1999/xlink" x="0px" y="0px"
	 width="906.199px" height="906.2px" viewBox="0 0 906.199 906.2" style="enable-background:new 0 0 906.199 906.2;"
	 xml:space="preserve">
<g>
	<path d="M906.199,886.249V20.049c0-11-9-20-20-20H20c-11,0-20,9-20,20v866.1c0,11,9,20,20,20h866.1
		C897.199,906.249,906.199,897.249,906.199,886.249z M517.199,456.149c-6.5,3.4-10.5,10.201-10.5,17.6V679.35
		c0,29.6-24,53.6-53.599,53.6l0,0c-29.6,0-53.6-24-53.6-53.6V473.749c0-7.299-4-14.199-10.5-17.6c-44.2-23.299-74.2-70-73.5-123.7
		c1-75.7,63.699-136.7,139.4-135.7c75.199,0.9,135.9,62.2,135.9,137.6C590.699,387.249,560.9,433.05,517.199,456.149z"/>
</g>
<g>
</g>
<g>
</g>
<g>
</g>
<g>
</g>
<g>
</g>
<g>
</g>
<g>
</g>
<g>
</g>
<g>
</g>
<g>
</g>
<g>
</g>
<g>
</g>
<g>
</g>
<g>
</g>
<g>
</g>
</svg>
