<?xml version="1.0" encoding="iso-8859-1"?>
<!-- Generator: Adobe Illustrator 16.0.0, SVG Export Plug-In . SVG Version: 6.00 Build 0)  -->
<!DOCTYPE svg PUBLIC "-//W3C//DTD SVG 1.1//EN" "http://www.w3.org/Graphics/SVG/1.1/DTD/svg11.dtd">
<svg version="1.1" id="Capa_1" xmlns="http://www.w3.org/2000/svg" xmlns:xlink="http://www.w3.org/1999/xlink" x="0px" y="0px"
	 width="869.4px" height="869.4px" viewBox="0 0 869.4 869.4" style="enable-background:new 0 0 869.4 869.4;" xml:space="preserve"
	>
<g>
	<path d="M434.7,869.4c240.1,0,434.7-194.601,434.7-434.7C869.4,194.6,674.8,0,434.7,0C194.6,0,0,194.6,0,434.7
		C0,674.8,194.6,869.4,434.7,869.4z M436.5,178.3c75.2,0.9,135.9,62.2,135.9,137.6c0,52.899-29.8,98.7-73.5,121.8
		c-6.5,3.4-10.5,10.2-10.5,17.6V660.9c0,29.6-24,53.6-53.601,53.6l0,0c-29.6,0-53.6-24-53.6-53.6V455.3c0-7.3-4-14.199-10.5-17.6
		c-44.2-23.3-74.2-70-73.5-123.7C298.101,238.4,360.8,177.3,436.5,178.3z"/>
</g>
<g>
</g>
<g>
</g>
<g>
</g>
<g>
</g>
<g>
</g>
<g>
</g>
<g>
</g>
<g>
</g>
<g>
</g>
<g>
</g>
<g>
</g>
<g>
</g>
<g>
</g>
<g>
</g>
<g>
</g>
</svg>
