<?xml version="1.0" encoding="iso-8859-1"?>
<!-- Generator: Adobe Illustrator 16.0.0, SVG Export Plug-In . SVG Version: 6.00 Build 0)  -->
<!DOCTYPE svg PUBLIC "-//W3C//DTD SVG 1.1//EN" "http://www.w3.org/Graphics/SVG/1.1/DTD/svg11.dtd">
<svg version="1.1" id="Capa_1" xmlns="http://www.w3.org/2000/svg" xmlns:xlink="http://www.w3.org/1999/xlink" x="0px" y="0px"
	 width="923.8px" height="923.799px" viewBox="0 0 923.8 923.799" style="enable-background:new 0 0 923.8 923.799;"
	 xml:space="preserve">
<g>
	<path d="M915.399,449.05L690.5,342.25c-4.4-2.1-9.601-1.8-13.8,0.8l-1,0.6c-4.101,2.6-6.7,7.2-6.601,12.1v51.6H254.4v-51.6
		c0-4.9-2.5-9.5-6.6-12.1l-1-0.6c-4.1-2.6-9.3-2.9-13.8-0.8L8.2,449.05c-5,2.399-8.2,7.399-8.2,12.9l0,0c0,5.5,3.2,10.5,8.2,12.9
		l224.9,106.7c4.4,2.1,9.6,1.8,13.8-0.801l1-0.6c4.1-2.6,6.7-7.2,6.6-12.1V517.45h414.8v50.601c0,4.899,2.5,9.5,6.6,12.1l1,0.6
		c4.101,2.601,9.301,2.9,13.801,0.801L915.6,474.85c5-2.4,8.2-7.4,8.2-12.9l0,0C923.6,456.35,920.399,451.35,915.399,449.05z"/>
</g>
<g>
</g>
<g>
</g>
<g>
</g>
<g>
</g>
<g>
</g>
<g>
</g>
<g>
</g>
<g>
</g>
<g>
</g>
<g>
</g>
<g>
</g>
<g>
</g>
<g>
</g>
<g>
</g>
<g>
</g>
</svg>
