<?xml version="1.0" encoding="iso-8859-1"?>
<!-- Generator: Adobe Illustrator 16.0.0, SVG Export Plug-In . SVG Version: 6.00 Build 0)  -->
<!DOCTYPE svg PUBLIC "-//W3C//DTD SVG 1.1//EN" "http://www.w3.org/Graphics/SVG/1.1/DTD/svg11.dtd">
<svg version="1.1" id="Capa_1" xmlns="http://www.w3.org/2000/svg" xmlns:xlink="http://www.w3.org/1999/xlink" x="0px" y="0px"
	 width="836.699px" height="836.699px" viewBox="0 0 836.699 836.699" style="enable-background:new 0 0 836.699 836.699;"
	 xml:space="preserve">
<g>
	<g>
		<path d="M648.4,228.05h-66.6c-4.5,0-8.9,1.8-12.102,5l0,0c-3.199,3.2-5,7.5-5,12.1v54.1c0,4.5,1.801,8.9,5,12.101
			c3.201,3.199,7.602,5,12.102,5l66.6-0.2c55.4,0,100.199,44.899,100.199,100.2v2.899c0,55.4-44.9,100.201-100.199,100.201H397.1
			v-146c0-4.5-1.8-8.9-5-12.1l0,0c-3.2-3.2-7.5-5-12.1-5h-54c-4.5,0-8.9,1.8-12.101,5l0,0c-3.2,3.199-5,7.5-5,12.1v214.2
			c0,11,9,20,20,20h319.401c50.299,0,97.6-19.6,133.199-55.199s55.199-82.9,55.199-133.201v-2.899
			c0-50.301-19.6-97.601-55.199-133.2C746,247.65,698.699,228.05,648.4,228.05z"/>
		<path d="M255,520.351L188.4,520.55c-55.4,0-100.2-44.9-100.2-100.199v-2.901c0-55.4,44.9-100.2,100.2-100.2h251.2v146.101
			c0,4.5,1.801,8.898,5,12.1l0,0c3.201,3.199,7.5,5,12.1,5h54c4.5,0,8.9-1.801,12.102-5l0,0c3.199-3.201,5-7.5,5-12.1V249.05
			c0-11-9-20-20-20H188.4c-50.3,0-97.6,19.6-133.2,55.2C19.6,319.75,0,367.049,0,417.35v2.899c0,50.301,19.6,97.602,55.2,133.201
			s82.9,55.199,133.2,55.199H255c4.5,0,8.899-1.799,12.1-5l0,0c3.2-3.199,5-7.5,5-12.1v-54.1c0-4.5-1.8-8.9-5-12.1
			C263.8,522.149,259.5,520.351,255,520.351z"/>
	</g>
</g>
<g>
</g>
<g>
</g>
<g>
</g>
<g>
</g>
<g>
</g>
<g>
</g>
<g>
</g>
<g>
</g>
<g>
</g>
<g>
</g>
<g>
</g>
<g>
</g>
<g>
</g>
<g>
</g>
<g>
</g>
</svg>
