<?xml version="1.0" encoding="iso-8859-1"?>
<!-- Generator: Adobe Illustrator 16.0.0, SVG Export Plug-In . SVG Version: 6.00 Build 0)  -->
<!DOCTYPE svg PUBLIC "-//W3C//DTD SVG 1.1//EN" "http://www.w3.org/Graphics/SVG/1.1/DTD/svg11.dtd">
<svg version="1.1" id="Capa_1" xmlns="http://www.w3.org/2000/svg" xmlns:xlink="http://www.w3.org/1999/xlink" x="0px" y="0px"
	 width="966.5px" height="966.5px" viewBox="0 0 966.5 966.5" style="enable-background:new 0 0 966.5 966.5;" xml:space="preserve"
	>
<g>
	<g>
		<path d="M529.299,340.8V201.5C529.299,90.4,438.9,0,327.799,0h-3.1C213.6,0,123.2,90.4,123.2,201.5v139.3h100V201.5
			c0-56,45.5-101.5,101.5-101.5h3.1c56,0,101.5,45.5,101.5,101.5v139.3H529.299L529.299,340.8z"/>
		<path d="M32.4,807.1h396c-9.5-28.9-14.4-59.4-14.4-90.699c0-77.5,30.2-150.301,84.9-205.1c38.6-38.601,87.8-66,141.1-77.901v-32.7
			c0-11-9-20-20-20H32.4c-11,0-20,9-20,20V787C12.4,798.199,21.4,807.1,32.4,807.1z M258.3,539.801
			c0.9-36.201,30.6-65.701,66.8-66.201c38-0.601,69.1,30.099,69.1,68c0,24-12.4,45-31.1,57.1c-7,4.5-10.5,12.801-8.801,21l17.301,82
			c2.6,12.4-6.9,24.102-19.601,24.102h-51.5c-12.7,0-22.2-11.701-19.6-24.102l17.3-82c1.7-8.199-1.9-16.5-8.9-21
			C270.2,586.199,257.7,564.5,258.3,539.801z"/>
		<path d="M704,466.5c-20.899,0-43.399,2.801-63.899,8.2c-42.301,11.101-81.101,33.3-112.801,65
			C480.1,586.9,454.1,649.699,454.1,716.5c0,31.5,5.8,62.1,16.899,90.699c12.5,32.201,32,61.701,56.3,86.102
			c47.2,47.199,110,73.199,176.801,73.199c66.8,0,129.6-26,176.8-73.199c47.2-47.201,73.2-110,73.2-176.801s-26-129.6-73.2-176.801
			C833.6,492.5,770.799,466.5,704,466.5z M811.5,766.5h34c-15.1,42.6-48.899,76.301-91.399,91.4v-34c0-27.6-22.4-50-50-50
			c-27.601,0-50,22.4-50,50v34c-40.601-14.4-73.2-45.801-89.2-85.701c-0.8-1.898-1.5-3.799-2.2-5.699h34c27.6,0,50-22.4,50-50
			s-22.4-50-50-50h-34c0.3-0.801,2.9-7.5,4-10c8.5-19.5,21-36.801,36.5-50.9c8.6-7.799,18.1-14.699,28.4-20.4
			c7.199-4,14.699-7.398,22.5-10.199v34c0,27.6,22.399,50,50,50c27.6,0,50-22.4,50-50v-34c42.6,15.1,76.3,48.9,91.399,91.4h-34
			c-27.6,0-50,22.4-50,50C761.5,744.1,783.9,766.5,811.5,766.5z"/>
	</g>
</g>
<g>
</g>
<g>
</g>
<g>
</g>
<g>
</g>
<g>
</g>
<g>
</g>
<g>
</g>
<g>
</g>
<g>
</g>
<g>
</g>
<g>
</g>
<g>
</g>
<g>
</g>
<g>
</g>
<g>
</g>
</svg>
