<?xml version="1.0" encoding="iso-8859-1"?>
<!-- Generator: Adobe Illustrator 16.0.0, SVG Export Plug-In . SVG Version: 6.00 Build 0)  -->
<!DOCTYPE svg PUBLIC "-//W3C//DTD SVG 1.1//EN" "http://www.w3.org/Graphics/SVG/1.1/DTD/svg11.dtd">
<svg version="1.1" id="Capa_1" xmlns="http://www.w3.org/2000/svg" xmlns:xlink="http://www.w3.org/1999/xlink" x="0px" y="0px"
	 width="755.525px" height="755.525px" viewBox="0 0 755.525 755.525" style="enable-background:new 0 0 755.525 755.525;"
	 xml:space="preserve">
<g>
	<polygon points="262.841,610.625 442.74,430.725 322.541,310.525 141.041,492.125 262.741,610.625 	"/>
	<path d="M735.94,101.825c23.1-23.101,23.1-60.601,0-83.7l-0.8-0.8c-23.101-23.101-60.601-23.101-83.7,0l-34.9,34.899l84.5,84.5
		L735.94,101.825z"/>
	<path d="M277.741,286.525c5.101,0,10.2-2,14.101-5.9l160-160l30.3,30.3l-131.299,131.3l120.199,120.2l212.5-212.5
		c3.9-3.9,3.9-10.2,0-14.1L577.44,69.725c-2-2-4.5-2.899-7.1-2.899c-2.601,0-5.101,1-7.101,2.899l-27.8,27.8l-30.3-30.3l13.1-13.1
		c7.8-7.8,7.8-20.5,0-28.3c-7.8-7.801-20.5-7.801-28.3,0l-226.299,226.6c-7.8,7.8-7.8,20.5,0,28.3
		C267.541,284.625,272.641,286.525,277.741,286.525z"/>
	<path d="M203.241,668.725c2.601-0.699,5-2.1,6.9-4l24.7-25.399l-121.8-118.601l-24.8,25.5c-1.8,1.9-3.1,4.2-3.8,6.7
		c-3.6,14-17.2,64-38.7,110.601l46,46C138.341,687.025,188.941,672.625,203.241,668.725z"/>
	<path d="M17.341,751.925c2.5,2.4,5.7,3.601,8.9,3.601c3,0,6-1.101,8.4-3.2c8.7-7.8,18.7-15.2,29.6-22.2l-37.1-37.1
		c-6.9,11.199-14.2,21.5-21.9,30.6c-4.3,5.1-3.9,12.6,0.9,17.3L17.341,751.925z"/>
</g>
<g>
</g>
<g>
</g>
<g>
</g>
<g>
</g>
<g>
</g>
<g>
</g>
<g>
</g>
<g>
</g>
<g>
</g>
<g>
</g>
<g>
</g>
<g>
</g>
<g>
</g>
<g>
</g>
<g>
</g>
</svg>
