<?xml version="1.0" encoding="iso-8859-1"?>
<!-- Generator: Adobe Illustrator 16.0.0, SVG Export Plug-In . SVG Version: 6.00 Build 0)  -->
<!DOCTYPE svg PUBLIC "-//W3C//DTD SVG 1.1//EN" "http://www.w3.org/Graphics/SVG/1.1/DTD/svg11.dtd">
<svg version="1.1" id="Capa_1" xmlns="http://www.w3.org/2000/svg" xmlns:xlink="http://www.w3.org/1999/xlink" x="0px" y="0px"
	 width="772.98px" height="772.98px" viewBox="0 0 772.98 772.98" style="enable-background:new 0 0 772.98 772.98;"
	 xml:space="preserve">
<g>
	<polygon points="462.456,430.764 462.456,430.764 342.256,310.563 142.756,510.063 262.956,630.264 	"/>
	<path d="M755.656,101.863c23.1-23.1,23.1-60.6,0-83.7l-0.8-0.8c-23.101-23.1-60.601-23.1-83.7,0l-35,35l84.5,84.5L755.656,101.863z
		"/>
	<path d="M296.456,286.664c5.101,0,10.2-2,14.101-5.9l160.5-160.5l30.8,30.8l-131.3,131.3l120.199,120.2l212.4-212.5
		c3.9-3.9,3.9-10.2,0-14.1l-106-106.1c-2-2-4.5-2.9-7.1-2.9c-2.601,0-5.101,1-7.101,2.9l-27.8,27.8l-30.8-30.8l12.6-12.6
		c7.8-7.8,7.8-20.5,0-28.3s-20.5-7.8-28.3,0l-226.4,226.5c-7.8,7.8-7.8,20.5,0,28.3
		C286.156,284.664,291.256,286.664,296.456,286.664z"/>
	<path d="M235.356,657.364l-59.9-59.9l-59.9-59.9c-44.2,2.2-77.1,39.5-88.3,84.7l-27.1,109.9c-1.2,4.899,4.8,8.399,8.4,4.8
		l44.6-44.6c7.7-7.7,20.3-8.301,28.3-0.9c7.4,8,6.9,20.6-0.9,28.3l-44.6,44.601c-3.6,3.6-0.2,9.699,4.8,8.399l109.9-27.1
		C195.856,734.563,233.256,701.664,235.356,657.364z"/>
</g>
<g>
</g>
<g>
</g>
<g>
</g>
<g>
</g>
<g>
</g>
<g>
</g>
<g>
</g>
<g>
</g>
<g>
</g>
<g>
</g>
<g>
</g>
<g>
</g>
<g>
</g>
<g>
</g>
<g>
</g>
</svg>
