<?xml version="1.0" encoding="iso-8859-1"?>
<!-- Generator: Adobe Illustrator 16.0.0, SVG Export Plug-In . SVG Version: 6.00 Build 0)  -->
<!DOCTYPE svg PUBLIC "-//W3C//DTD SVG 1.1//EN" "http://www.w3.org/Graphics/SVG/1.1/DTD/svg11.dtd">
<svg version="1.1" id="Capa_1" xmlns="http://www.w3.org/2000/svg" xmlns:xlink="http://www.w3.org/1999/xlink" x="0px" y="0px"
	 width="939.85px" height="939.85px" viewBox="0 0 939.85 939.85" style="enable-background:new 0 0 939.85 939.85;"
	 xml:space="preserve">
<g>
	<path d="M802.225,802.225c183.5-183.5,183.5-481.1,0-664.6s-481.1-183.5-664.6,0s-183.5,481.1,0,664.6
		S618.725,985.725,802.225,802.225z M200.524,549.125c0.3-11.9,4.601-23.7,13.7-32.8l297.3-297.301l59.7-59.7
		c13-13,31.9-18.699,50.5-15.3c13,2.4,25,8.7,34.7,18.4l121,121c9.7,9.7,16.1,21.7,18.4,34.7c3.399,18.699-2.301,37.6-15.301,50.5
		l-59.699,59.8l-297.301,297.3c-9.1,9.101-21,13.5-32.899,13.8c-0.9,0-125.4,0-125.4,0c-16.4-0.1-32.8-7.5-45.1-19.8
		c-12.2-12.2-19.5-28.7-19.601-45.1C200.524,674.625,200.425,550.024,200.524,549.125z"/>
	<g>
		<path d="M682.225,399.024l53.3-53.3c7-7,6.2-20.3-0.6-27.1l-115.7-115.7c-6.399-6.4-17.1-6.5-23.5-0.2l-54.899,54.9
			L682.225,399.024L682.225,399.024z"/>
		<path d="M422.024,657.825c0.2,0.199,0.4,0.399,0.601,0.699l230-230l-141.3-141.5l-230,230c0.199,0.2,0.5,0.4,0.699,0.601
			L422.024,657.825z"/>
		<path d="M253.925,685.825c3.2,3.199,7.399,5.199,11.5,5.199h122.9l-139.601-139.5l-0.3,122.801
			C248.425,678.325,250.824,682.725,253.925,685.825z"/>
	</g>
</g>
<g>
</g>
<g>
</g>
<g>
</g>
<g>
</g>
<g>
</g>
<g>
</g>
<g>
</g>
<g>
</g>
<g>
</g>
<g>
</g>
<g>
</g>
<g>
</g>
<g>
</g>
<g>
</g>
<g>
</g>
</svg>
