<?xml version="1.0" encoding="iso-8859-1"?>
<!-- Generator: Adobe Illustrator 16.0.0, SVG Export Plug-In . SVG Version: 6.00 Build 0)  -->
<!DOCTYPE svg PUBLIC "-//W3C//DTD SVG 1.1//EN" "http://www.w3.org/Graphics/SVG/1.1/DTD/svg11.dtd">
<svg version="1.1" id="Capa_1" xmlns="http://www.w3.org/2000/svg" xmlns:xlink="http://www.w3.org/1999/xlink" x="0px" y="0px"
	 width="741.22px" height="741.219px" viewBox="0 0 741.22 741.219" style="enable-background:new 0 0 741.22 741.219;"
	 xml:space="preserve">
<g>
	<path d="M329.207,412.006c-11.1-11.1-21.399-23.3-30.3-36.2c-4.3-6.1-8.3-12.5-12.1-19l-236.8,236.801
		c-8.1,8.1-14.2,18-17.9,28.899c-10.8,32.2-23.6,73.101-31.2,97.5c-4.2,13.5,6.8,24.5,20.3,20.3c24.4-7.6,65.3-20.399,97.5-31.199
		c10.9-3.601,20.8-9.801,28.9-17.9l236.7-236.7c-6.5-3.8-12.8-7.8-19-12.1C352.508,433.407,340.407,423.207,329.207,412.006z"/>
	<path d="M676.207,65.006c-43.3-43.3-100.1-65-156.899-65s-113.601,21.7-156.9,65c-69.6,69.6-83.3,173.9-41,257.2
		c0.2,0.4,0.4,0.8,0.601,1.3c4.5,8.7,9.6,17.2,15.3,25.4c7.3,10.5,15.7,20.5,25.1,29.899c9.4,9.4,19.4,17.7,29.9,25.101
		c8.2,5.7,16.7,10.899,25.399,15.399c0.4,0.2,0.801,0.4,1.2,0.601c31.4,15.899,65.9,23.899,100.3,23.899
		c56.801,0,113.5-21.699,156.9-65C762.907,292.106,762.907,151.707,676.207,65.006z"/>
</g>
<g>
</g>
<g>
</g>
<g>
</g>
<g>
</g>
<g>
</g>
<g>
</g>
<g>
</g>
<g>
</g>
<g>
</g>
<g>
</g>
<g>
</g>
<g>
</g>
<g>
</g>
<g>
</g>
<g>
</g>
</svg>
