<?xml version="1.0" encoding="iso-8859-1"?>
<!-- Generator: Adobe Illustrator 16.0.0, SVG Export Plug-In . SVG Version: 6.00 Build 0)  -->
<!DOCTYPE svg PUBLIC "-//W3C//DTD SVG 1.1//EN" "http://www.w3.org/Graphics/SVG/1.1/DTD/svg11.dtd">
<svg version="1.1" id="Capa_1" xmlns="http://www.w3.org/2000/svg" xmlns:xlink="http://www.w3.org/1999/xlink" x="0px" y="0px"
	 width="756.1px" height="756.1px" viewBox="0 0 756.1 756.1" style="enable-background:new 0 0 756.1 756.1;" xml:space="preserve"
	>
<g>
	<path d="M662.55,127.2h-569c0,0,26.7,446.7,36.5,610.101c0.6,10.6,9.4,18.799,20,18.799h457c10.6,0,19.3-8.299,20-18.799
		C636.55,573.9,662.55,127.2,662.55,127.2z"/>
	<path d="M689.85,67.2V20c0-11-9-20-20-20H86.25c-11,0-20,9-20,20v47.2c0,11,9,20,20,20h583.6C680.85,87.2,689.85,78.3,689.85,67.2z
		"/>
</g>
<g>
</g>
<g>
</g>
<g>
</g>
<g>
</g>
<g>
</g>
<g>
</g>
<g>
</g>
<g>
</g>
<g>
</g>
<g>
</g>
<g>
</g>
<g>
</g>
<g>
</g>
<g>
</g>
<g>
</g>
</svg>
