<?xml version="1.0" encoding="iso-8859-1"?>
<!-- Generator: Adobe Illustrator 16.0.0, SVG Export Plug-In . SVG Version: 6.00 Build 0)  -->
<!DOCTYPE svg PUBLIC "-//W3C//DTD SVG 1.1//EN" "http://www.w3.org/Graphics/SVG/1.1/DTD/svg11.dtd">
<svg version="1.1" id="Capa_1" xmlns="http://www.w3.org/2000/svg" xmlns:xlink="http://www.w3.org/1999/xlink" x="0px" y="0px"
	 width="922.25px" height="922.25px" viewBox="0 0 922.25 922.25" style="enable-background:new 0 0 922.25 922.25;"
	 xml:space="preserve">
<g>
	<g>
		<path d="M707.075,441.589l165-67c8.399-3.4,8.3-15.3-0.101-18.6l-555.1-219c-8.1-3.2-16.1,4.7-13,12.8l35.9,95.8l245.3,94.3
			c19.2,7.4,31.8,25.4,32.1,46c0.3,20.601-11.8,38.9-30.8,46.8l-109.3,45.5l107.3,107.4l17.2-40.3l212.3,216
			c3.9,3.899,10.2,4,14.1,0.1l91.301-89.7c3.899-3.899,4-10.199,0.1-14.1L707.075,441.589z"/>
		<path d="M620.675,692.589c3.9-3.9,3.9-10.2,0-14.1l-214.201-214.2l164.401-68.4c8.3-3.5,8.2-15.3-0.3-18.6l-557-214.1
			c-1.2-0.5-2.5-0.7-3.6-0.7c-6.6,0-11.9,6.8-9.3,13.6l214.1,557c1.6,4.3,5.5,6.4,9.3,6.4c3.8,0,7.5-2,9.2-6.2l68.4-164.4
			l214.201,214.2c2,2,4.5,2.9,7.1,2.9c2.601,0,5.101-1,7.101-2.9L620.675,692.589z"/>
	</g>
</g>
<g>
</g>
<g>
</g>
<g>
</g>
<g>
</g>
<g>
</g>
<g>
</g>
<g>
</g>
<g>
</g>
<g>
</g>
<g>
</g>
<g>
</g>
<g>
</g>
<g>
</g>
<g>
</g>
<g>
</g>
</svg>
