<?xml version="1.0" encoding="iso-8859-1"?>
<!-- Generator: Adobe Illustrator 16.0.0, SVG Export Plug-In . SVG Version: 6.00 Build 0)  -->
<!DOCTYPE svg PUBLIC "-//W3C//DTD SVG 1.1//EN" "http://www.w3.org/Graphics/SVG/1.1/DTD/svg11.dtd">
<svg version="1.1" id="Capa_1" xmlns="http://www.w3.org/2000/svg" xmlns:xlink="http://www.w3.org/1999/xlink" x="0px" y="0px"
	 width="870.4px" height="870.4px" viewBox="0 0 870.4 870.4" style="enable-background:new 0 0 870.4 870.4;" xml:space="preserve"
	>
<g>
	<path d="M436.7,0h-3.1C322.4,0,232.2,90.2,232.2,201.5v133.6c23.4-18.9,49.2-34.4,77.1-46.2c7.5-3.2,15.2-6.1,22.9-8.7v-78.8
		c0-56,45.4-101.5,101.5-101.5h3.1c56,0,101.5,45.4,101.5,101.5c0,23.6,19.1,42.7,42.699,42.7h14.602
		c23.6,0,42.699-19.1,42.699-42.7C638.2,90.2,547.999,0,436.7,0z"/>
	<path d="M435.2,303.5c-36.3,0-71.1,6.8-103,19.3c-38,14.8-72,37.6-100,66.4C182.4,440.3,151.8,510,151.8,587
		c0,156.5,126.9,283.4,283.4,283.4c156.5,0,283.401-126.9,283.401-283.4S591.7,303.5,435.2,303.5z M465.101,614.4L486.8,717.3
		c1.301,6.2-3.4,12.101-9.801,12.101H435.2h-41.8c-6.4,0-11.101-5.8-9.8-12.101L405.299,614.4c1.7-8.101-1.699-16.5-8.699-20.9
		c-21.101-13.2-35-36.899-34.301-63.8c1-38.7,32.5-70.2,71.2-71.1c41.101-1,74.8,32.1,74.8,73c0,26.1-13.699,49-34.301,61.899
		C466.899,597.8,463.399,606.2,465.101,614.4z"/>
</g>
<g>
</g>
<g>
</g>
<g>
</g>
<g>
</g>
<g>
</g>
<g>
</g>
<g>
</g>
<g>
</g>
<g>
</g>
<g>
</g>
<g>
</g>
<g>
</g>
<g>
</g>
<g>
</g>
<g>
</g>
</svg>
