<?xml version="1.0" encoding="iso-8859-1"?>
<!-- Generator: Adobe Illustrator 16.0.0, SVG Export Plug-In . SVG Version: 6.00 Build 0)  -->
<!DOCTYPE svg PUBLIC "-//W3C//DTD SVG 1.1//EN" "http://www.w3.org/Graphics/SVG/1.1/DTD/svg11.dtd">
<svg version="1.1" id="Capa_1" xmlns="http://www.w3.org/2000/svg" xmlns:xlink="http://www.w3.org/1999/xlink" x="0px" y="0px"
	 width="807px" height="807px" viewBox="0 0 807 807" style="enable-background:new 0 0 807 807;" xml:space="preserve">
<g>
	<path d="M402,100h3.1c56,0,101.5,45.4,101.5,101.5c0,23.6,19.101,42.7,42.7,42.7H563.9c23.6,0,42.699-19.1,42.699-42.7
		C606.6,90.2,516.4,0,405.1,0H402C290.7,0,200.5,90.2,200.5,201.4v139.3h100V201.4C300.5,145.4,345.9,100,402,100z"/>
	<path d="M717.3,787V400.7c0-11-9-20-20-20H109.7c-11,0-20,9-20,20V787c0,11,9,20,20,20h587.6C708.4,807,717.3,798.1,717.3,787z
		 M440.3,598.5c-7,4.5-10.5,12.8-8.8,21l17.3,82c2.601,12.4-6.899,24.1-19.6,24.1h-51.5c-12.7,0-22.2-11.699-19.601-24.1l17.301-82
		c1.699-8.2-1.9-16.5-8.9-21c-19.1-12.4-31.6-34.1-31-58.8c0.9-36.2,30.6-65.7,66.8-66.2c38-0.6,69.101,30.1,69.101,68
		C471.5,565.4,459.1,586.5,440.3,598.5z"/>
</g>
<g>
</g>
<g>
</g>
<g>
</g>
<g>
</g>
<g>
</g>
<g>
</g>
<g>
</g>
<g>
</g>
<g>
</g>
<g>
</g>
<g>
</g>
<g>
</g>
<g>
</g>
<g>
</g>
<g>
</g>
</svg>
