<?xml version="1.0" encoding="iso-8859-1"?>
<!-- Generator: Adobe Illustrator 16.0.0, SVG Export Plug-In . SVG Version: 6.00 Build 0)  -->
<!DOCTYPE svg PUBLIC "-//W3C//DTD SVG 1.1//EN" "http://www.w3.org/Graphics/SVG/1.1/DTD/svg11.dtd">
<svg version="1.1" id="Capa_1" xmlns="http://www.w3.org/2000/svg" xmlns:xlink="http://www.w3.org/1999/xlink" x="0px" y="0px"
	 width="916.158px" height="916.158px" viewBox="0 0 916.158 916.158" style="enable-background:new 0 0 916.158 916.158;"
	 xml:space="preserve">
<g>
	<path d="M6.375,786.763l270.4,128.3c7.5,3.5,16.1-1.899,16.1-10.2v-72.199h106.101c58.3,0,115-11.4,168.3-33.9
		c51.5-21.7,97.8-52.7,137.5-92.3c39.7-39.601,70.899-85.601,92.7-137c22.6-53.2,34.1-109.7,34.1-167.8V292.862h73.3
		c8.3,0,13.7-8.6,10.2-16.1l-128.3-270.3c-4.101-8.601-16.3-8.601-20.3,0l-128.4,270.399c-3.5,7.5,1.9,16.101,10.2,16.101h73.3
		v108.899c0,85.7-33.5,166.2-94.4,226.801c-60.899,60.699-142,94.1-228.199,94.1H292.875v-74.5c0-8.3-8.6-13.7-16.1-10.2
		l-270.4,128.4C-2.125,770.562-2.125,782.763,6.375,786.763z"/>
</g>
<g>
</g>
<g>
</g>
<g>
</g>
<g>
</g>
<g>
</g>
<g>
</g>
<g>
</g>
<g>
</g>
<g>
</g>
<g>
</g>
<g>
</g>
<g>
</g>
<g>
</g>
<g>
</g>
<g>
</g>
</svg>
