<?xml version="1.0" encoding="iso-8859-1"?>
<!-- Generator: Adobe Illustrator 16.0.0, SVG Export Plug-In . SVG Version: 6.00 Build 0)  -->
<!DOCTYPE svg PUBLIC "-//W3C//DTD SVG 1.1//EN" "http://www.w3.org/Graphics/SVG/1.1/DTD/svg11.dtd">
<svg version="1.1" id="Capa_1" xmlns="http://www.w3.org/2000/svg" xmlns:xlink="http://www.w3.org/1999/xlink" x="0px" y="0px"
	 width="925.101px" height="925.101px" viewBox="0 0 925.101 925.101" style="enable-background:new 0 0 925.101 925.101;"
	 xml:space="preserve">
<g>
	<path d="M918.145,451.5L686.245,341.4c-8-3.8-17.3,2-17.3,10.9v55.8H566.145v109.6c55.2,0,102.9,0,102.9,0v54.9
		c0,8.899,9.2,14.699,17.3,10.899l231.9-110.1C927.345,469,927.345,455.9,918.145,451.5z"/>
	<path d="M359.945,517.7V408.2h-103.8v-55.8c0-8.9-9.2-14.7-17.3-10.9l-231.9,110c-9.2,4.4-9.2,17.5,0,21.8l231.9,110.101
		c8,3.8,17.3-2,17.3-10.9v-54.899C256.145,517.7,304.344,517.7,359.945,517.7z"/>
	<path d="M572.645,668.9L572.645,668.9h-54.899V256h54.899l0,0c8.9,0,14.7-9.3,10.9-17.3L473.445,6.9c-2.2-4.6-6.601-6.9-10.901-6.9
		c-4.4,0-8.7,2.3-10.9,6.9l-110.1,231.9c-3.8,8,2,17.3,10.9,17.3l0,0h55.8V669h-55.8l0,0c-8.9,0-14.7,9.3-10.9,17.3l110.1,231.9
		c2.2,4.6,6.601,6.9,10.9,6.9c4.401,0,8.701-2.301,10.901-6.9l110.1-232.1C587.345,678.101,581.545,668.9,572.645,668.9z"/>
</g>
<g>
</g>
<g>
</g>
<g>
</g>
<g>
</g>
<g>
</g>
<g>
</g>
<g>
</g>
<g>
</g>
<g>
</g>
<g>
</g>
<g>
</g>
<g>
</g>
<g>
</g>
<g>
</g>
<g>
</g>
</svg>
