<?xml version="1.0" encoding="iso-8859-1"?>
<!-- Generator: Adobe Illustrator 16.0.0, SVG Export Plug-In . SVG Version: 6.00 Build 0)  -->
<!DOCTYPE svg PUBLIC "-//W3C//DTD SVG 1.1//EN" "http://www.w3.org/Graphics/SVG/1.1/DTD/svg11.dtd">
<svg version="1.1" id="Capa_1" xmlns="http://www.w3.org/2000/svg" xmlns:xlink="http://www.w3.org/1999/xlink" x="0px" y="0px"
	 width="867.199px" height="867.199px" viewBox="0 0 867.199 867.199" style="enable-background:new 0 0 867.199 867.199;"
	 xml:space="preserve">
<g>
	<path d="M127,740.199c39.8,39.801,86.2,71.102,137.8,92.9c53.5,22.6,110.3,34.1,168.8,34.1c58.5,0,115.3-11.5,168.8-34.1
		c51.6-21.799,98-53.1,137.799-92.9C780,700.4,811.301,654,833.1,602.4c22.6-53.5,34.1-110.301,34.1-168.801
		c0-58.5-11.5-115.299-34.1-168.799c-21.799-51.6-53.1-98-92.9-137.8C700.4,87.2,654,55.9,602.4,34.1C548.9,11.4,492.1,0,433.6,0
		c-58.5,0-115.3,11.5-168.8,34.1c-51.6,21.8-98,53.1-137.8,92.9c-39.8,39.8-71.1,86.2-92.9,137.8C11.4,318.3,0,375.1,0,433.6
		C0,492.1,11.5,548.9,34.1,602.4C55.9,654.1,87.2,700.4,127,740.199z M227.5,383.6H103.7c10.5-70.1,42.9-134.9,94-185.9
		s115.8-83.5,185.9-94v123.8c0,27.6,22.4,50,50,50c27.599,0,50-22.4,50-50V103.7c70.1,10.5,134.9,42.9,185.9,94
		c51.1,51.1,83.5,115.8,94,185.9H639.699c-27.6,0-50,22.4-50,50c0,27.6,22.4,50,50,50H763.5c-10.5,70.1-42.9,134.9-94,185.9
		c-51.1,51.1-115.801,83.5-185.9,94V639.699c0-27.6-22.4-50-50-50c-27.6,0-50,22.4-50,50V763.5c-70.1-10.5-134.9-42.9-185.9-94
		c-51-51.1-83.5-115.801-94-185.9h123.8c27.6,0,50-22.4,50-50C277.5,406,255.1,383.6,227.5,383.6z"/>
</g>
<g>
</g>
<g>
</g>
<g>
</g>
<g>
</g>
<g>
</g>
<g>
</g>
<g>
</g>
<g>
</g>
<g>
</g>
<g>
</g>
<g>
</g>
<g>
</g>
<g>
</g>
<g>
</g>
<g>
</g>
</svg>
