<?xml version="1.0" encoding="iso-8859-1"?>
<!-- Generator: Adobe Illustrator 16.0.0, SVG Export Plug-In . SVG Version: 6.00 Build 0)  -->
<!DOCTYPE svg PUBLIC "-//W3C//DTD SVG 1.1//EN" "http://www.w3.org/Graphics/SVG/1.1/DTD/svg11.dtd">
<svg version="1.1" id="Capa_1" xmlns="http://www.w3.org/2000/svg" xmlns:xlink="http://www.w3.org/1999/xlink" x="0px" y="0px"
	 width="916.601px" height="916.601px" viewBox="0 0 916.601 916.601" style="enable-background:new 0 0 916.601 916.601;"
	 xml:space="preserve">
<g>
	<path d="M458.2,0c-27.6,0-50,22.4-50,50v161.2c-48.3,9.7-92.6,33.3-128.2,68.9c-35.6,35.6-59.2,79.9-68.9,128.2H50
		c-27.6,0-50,22.4-50,50c0,27.601,22.4,50,50,50h161.2c9.7,48.301,33.3,92.601,68.9,128.2C315.7,672.101,360,695.7,408.3,705.4
		v161.2c0,27.6,22.4,50,50,50c27.601,0,50-22.4,50-50V705.3c48.301-9.699,92.601-33.3,128.2-68.899
		c35.601-35.601,59.2-79.9,68.9-128.2h161.2c27.6,0,50-22.4,50-50s-22.4-50-50-50H705.3C695.601,359.9,672,315.6,636.4,280
		c-35.601-35.6-79.9-59.2-128.2-68.9V50C508.2,22.4,485.8,0,458.2,0z M408.2,601.7c-43.7-15.3-78.3-49.9-93.5-93.5h93.5V601.7z
		 M408.2,408.2h-93.5c15.3-43.7,49.9-78.3,93.5-93.5V408.2z M508.2,601.7v-93.5h93.5C586.5,551.9,551.9,586.5,508.2,601.7z
		 M601.7,408.2h-93.5v-93.5C551.9,329.9,586.5,364.5,601.7,408.2z"/>
</g>
<g>
</g>
<g>
</g>
<g>
</g>
<g>
</g>
<g>
</g>
<g>
</g>
<g>
</g>
<g>
</g>
<g>
</g>
<g>
</g>
<g>
</g>
<g>
</g>
<g>
</g>
<g>
</g>
<g>
</g>
</svg>
